<svg width="272" height="371" viewBox="0 0 272 371" fill="none" xmlns="http://www.w3.org/2000/svg">
<rect width="272" height="371" rx="15" fill="black"/>
<path d="M20 105H253V337C253 345.284 246.284 352 238 352H35C26.7157 352 20 345.284 20 337V105Z" fill="#232323"/>
<path d="M20 31C20 22.7157 26.7157 16 35 16H238C246.284 16 253 22.7157 253 31V98H20V31Z" fill="#434D3F"/>
<rect x="40" y="117" width="35" height="30" rx="5" fill="#C4C4C4"/>
<rect x="147" y="117" width="35" height="30" rx="5" fill="#C4C4C4"/>
<rect x="93" y="117" width="35" height="30" rx="5" fill="#C4C4C4"/>
<rect x="199" y="117" width="35" height="30" rx="5" fill="#C4C4C4"/>
<rect x="40" y="297" width="35" height="30" rx="5" fill="#30FF6A"/>
<rect x="147" y="297" width="35" height="30" rx="5" fill="#2E9DEF"/>
<rect x="93" y="297" width="35" height="30" rx="5" fill="#FF5D30"/>
<rect x="199" y="297" width="35" height="30" rx="5" fill="#C4C4C4"/>
<path d="M40 257C40 254.239 42.2386 252 45 252H70C72.7614 252 75 254.239 75 257V277C75 279.761 72.7614 282 70 282H45C42.2386 282 40 279.761 40 277V257Z" fill="#C4C4C4"/>
<path d="M62.5493 213.5C63.3229 213.5 63.95 214.127 63.95 214.901V214.901C63.95 215.098 63.9083 215.293 63.8277 215.473L57.1944 230.287C57.0001 230.721 56.569 231 56.0936 231V231C55.2175 231 54.6337 230.096 54.9944 229.297L59.148 220.105C60.0866 218.028 58.5676 215.675 56.2882 215.675H54.7125C53.8496 215.675 53.15 216.375 53.15 217.237V217.6C53.15 218.263 52.6127 218.8 51.95 218.8V218.8C51.2873 218.8 50.75 218.263 50.75 217.6V216.15C50.75 214.686 51.9364 213.5 53.4 213.5H62.5493Z" fill="#C4C4C4"/>
<rect x="147" y="252" width="35" height="30" rx="5" fill="#C4C4C4"/>
<rect x="93" y="252" width="35" height="30" rx="5" fill="#C4C4C4"/>
<path d="M110.35 276.2C108.967 276.2 107.733 275.85 106.65 275.15C105.583 274.433 104.742 273.4 104.125 272.05C103.508 270.7 103.2 269.1 103.2 267.25C103.2 265.4 103.508 263.8 104.125 262.45C104.742 261.1 105.583 260.075 106.65 259.375C107.733 258.658 108.967 258.3 110.35 258.3C111.717 258.3 112.933 258.658 114 259.375C115.083 260.075 115.933 261.1 116.55 262.45C117.167 263.8 117.475 265.4 117.475 267.25C117.475 269.1 117.167 270.7 116.55 272.05C115.933 273.4 115.083 274.433 114 275.15C112.933 275.85 111.717 276.2 110.35 276.2ZM110.35 273.975C111.75 273.975 112.867 273.4 113.7 272.25C114.55 271.1 114.975 269.433 114.975 267.25C114.975 265.067 114.55 263.4 113.7 262.25C112.867 261.1 111.75 260.525 110.35 260.525C108.933 260.525 107.8 261.1 106.95 262.25C106.117 263.4 105.7 265.067 105.7 267.25C105.7 269.433 106.117 271.1 106.95 272.25C107.8 273.4 108.933 273.975 110.35 273.975Z" fill="black"/>
<rect x="199" y="252" width="35" height="30" rx="5" fill="#C4C4C4"/>
<rect x="40" y="207" width="35" height="30" rx="5" fill="#C4C4C4"/>
<rect x="147" y="207" width="35" height="30" rx="5" fill="#C4C4C4"/>
<rect x="93" y="207" width="35" height="30" rx="5" fill="#C4C4C4"/>
<rect x="199" y="207" width="35" height="30" rx="5" fill="#C4C4C4"/>
<rect x="40" y="162" width="35" height="30" rx="5" fill="#C4C4C4"/>
<rect x="147" y="162" width="35" height="30" rx="5" fill="#C4C4C4"/>
<rect x="93" y="162" width="35" height="30" rx="5" fill="#C4C4C4"/>
<rect x="199" y="162" width="35" height="30" rx="5" fill="#C4C4C4"/>
<path d="M58.625 123.5V141H56.15V125.675H52.2V123.5H58.625Z" fill="black"/>
<path d="M65.425 181.7H62.1V186H59.675V181.7H49.95V179.95L58.9 168.5H61.6L53.025 179.55H59.75V175.75H62.1V179.55H65.425V181.7Z" fill="black"/>
<path d="M116.5 138.825V141H103.925V139.3L111.05 132.425C111.917 131.592 112.5 130.875 112.8 130.275C113.1 129.658 113.25 129.042 113.25 128.425C113.25 127.508 112.925 126.8 112.275 126.3C111.642 125.783 110.725 125.525 109.525 125.525C107.592 125.525 106.1 126.158 105.05 127.425L103.35 125.95C104.033 125.117 104.925 124.467 106.025 124C107.142 123.533 108.383 123.3 109.75 123.3C111.583 123.3 113.042 123.742 114.125 124.625C115.208 125.492 115.75 126.675 115.75 128.175C115.75 129.108 115.55 129.992 115.15 130.825C114.75 131.658 113.992 132.608 112.875 133.675L107.525 138.825H116.5Z" fill="black"/>
<path d="M63.95 213.5V215.2L56.875 231H54.225L61.15 215.675H53.15V218.8H50.75V213.5H63.95Z" fill="black"/>
<path d="M109.2 175.475C111.7 175.475 113.533 175.95 114.7 176.9C115.883 177.833 116.475 179.117 116.475 180.75C116.475 181.783 116.225 182.717 115.725 183.55C115.242 184.367 114.5 185.017 113.5 185.5C112.517 185.967 111.3 186.2 109.85 186.2C108.617 186.2 107.425 186.017 106.275 185.65C105.125 185.267 104.175 184.742 103.425 184.075L104.575 182.1C105.175 182.667 105.942 183.125 106.875 183.475C107.808 183.808 108.792 183.975 109.825 183.975C111.142 183.975 112.158 183.7 112.875 183.15C113.608 182.583 113.975 181.817 113.975 180.85C113.975 179.8 113.575 179.008 112.775 178.475C111.975 177.925 110.608 177.65 108.675 177.65H104.7L105.625 168.5H115.5V170.675H107.725L107.25 175.475H109.2Z" fill="black"/>
<path d="M164.875 266.725C165.342 266.725 165.725 266.892 166.025 267.225C166.342 267.542 166.5 267.942 166.5 268.425C166.5 268.675 166.467 268.917 166.4 269.15C166.35 269.383 166.242 269.742 166.075 270.225L164.9 273.7H163.325L164.25 269.975C163.933 269.858 163.675 269.667 163.475 269.4C163.292 269.117 163.2 268.792 163.2 268.425C163.2 267.925 163.358 267.517 163.675 267.2C163.992 266.883 164.392 266.725 164.875 266.725Z" fill="black"/>
<path d="M55.85 270.15C55.3833 270.15 54.9833 269.992 54.65 269.675C54.3167 269.342 54.15 268.925 54.15 268.425C54.15 267.942 54.3167 267.542 54.65 267.225C54.9833 266.892 55.3833 266.725 55.85 266.725C56.3167 266.725 56.7083 266.883 57.025 267.2C57.3417 267.517 57.5 267.925 57.5 268.425C57.5 268.925 57.3333 269.342 57 269.675C56.6833 269.992 56.3 270.15 55.85 270.15Z" fill="black"/>
<path d="M114.9 221.825C115.9 222.208 116.667 222.758 117.2 223.475C117.733 224.192 118 225.05 118 226.05C118 227.1 117.717 228.017 117.15 228.8C116.583 229.567 115.775 230.158 114.725 230.575C113.675 230.992 112.442 231.2 111.025 231.2C109.625 231.2 108.4 230.992 107.35 230.575C106.317 230.158 105.517 229.567 104.95 228.8C104.383 228.017 104.1 227.1 104.1 226.05C104.1 225.05 104.358 224.192 104.875 223.475C105.408 222.758 106.175 222.208 107.175 221.825C106.375 221.442 105.767 220.933 105.35 220.3C104.933 219.667 104.725 218.917 104.725 218.05C104.725 217.083 104.983 216.242 105.5 215.525C106.033 214.808 106.775 214.258 107.725 213.875C108.675 213.492 109.775 213.3 111.025 213.3C112.292 213.3 113.4 213.492 114.35 213.875C115.317 214.258 116.058 214.808 116.575 215.525C117.108 216.242 117.375 217.083 117.375 218.05C117.375 218.9 117.158 219.65 116.725 220.3C116.308 220.933 115.7 221.442 114.9 221.825ZM111.025 215.325C109.842 215.325 108.908 215.583 108.225 216.1C107.542 216.6 107.2 217.283 107.2 218.15C107.2 219.017 107.533 219.7 108.2 220.2C108.883 220.7 109.825 220.95 111.025 220.95C112.242 220.95 113.192 220.7 113.875 220.2C114.575 219.7 114.925 219.017 114.925 218.15C114.925 217.283 114.567 216.6 113.85 216.1C113.15 215.583 112.208 215.325 111.025 215.325ZM111.025 229.175C112.408 229.175 113.5 228.892 114.3 228.325C115.1 227.742 115.5 226.958 115.5 225.975C115.5 225.008 115.1 224.25 114.3 223.7C113.5 223.133 112.408 222.85 111.025 222.85C109.642 222.85 108.558 223.133 107.775 223.7C106.992 224.25 106.6 225.008 106.6 225.975C106.6 226.958 106.992 227.742 107.775 228.325C108.558 228.892 109.642 229.175 111.025 229.175Z" fill="black"/>
<path d="M163.875 213.3C166.225 213.3 168.033 214.058 169.3 215.575C170.583 217.092 171.225 219.242 171.225 222.025C171.225 223.975 170.875 225.642 170.175 227.025C169.492 228.392 168.525 229.433 167.275 230.15C166.042 230.85 164.6 231.2 162.95 231.2C162.1 231.2 161.3 231.117 160.55 230.95C159.8 230.767 159.15 230.508 158.6 230.175L159.55 228.225C160.4 228.775 161.525 229.05 162.925 229.05C164.742 229.05 166.158 228.492 167.175 227.375C168.208 226.242 168.725 224.6 168.725 222.45V221.825C168.225 222.575 167.533 223.15 166.65 223.55C165.767 223.933 164.775 224.125 163.675 224.125C162.525 224.125 161.492 223.908 160.575 223.475C159.675 223.042 158.967 222.425 158.45 221.625C157.95 220.808 157.7 219.875 157.7 218.825C157.7 217.725 157.967 216.758 158.5 215.925C159.05 215.092 159.792 214.45 160.725 214C161.658 213.533 162.708 213.3 163.875 213.3ZM164.1 222.1C164.883 222.1 165.583 221.95 166.2 221.65C166.817 221.35 167.292 220.942 167.625 220.425C167.975 219.908 168.15 219.333 168.15 218.7C168.15 218.083 167.983 217.525 167.65 217.025C167.333 216.508 166.858 216.1 166.225 215.8C165.608 215.483 164.858 215.325 163.975 215.325C162.825 215.325 161.892 215.633 161.175 216.25C160.475 216.867 160.125 217.692 160.125 218.725C160.125 219.758 160.483 220.583 161.2 221.2C161.917 221.8 162.883 222.1 164.1 222.1Z" fill="black"/>
<path d="M164.9 130.85C166.617 131.017 167.925 131.55 168.825 132.45C169.725 133.333 170.175 134.467 170.175 135.85C170.175 136.85 169.925 137.758 169.425 138.575C168.925 139.375 168.175 140.017 167.175 140.5C166.192 140.967 164.983 141.2 163.55 141.2C162.3 141.2 161.1 141.017 159.95 140.65C158.8 140.267 157.858 139.742 157.125 139.075L158.275 137.1C158.875 137.667 159.642 138.125 160.575 138.475C161.508 138.808 162.5 138.975 163.55 138.975C164.85 138.975 165.858 138.7 166.575 138.15C167.308 137.6 167.675 136.842 167.675 135.875C167.675 134.908 167.317 134.158 166.6 133.625C165.883 133.092 164.8 132.825 163.35 132.825H161.95V131.075L166.35 125.675H157.925V123.5H169.475V125.2L164.9 130.85Z" fill="black"/>
<path d="M212.425 133.1H219.15V135.175H212.425V133.1Z" fill="black"/>
<path d="M165.75 175.375C166.9 175.375 167.925 175.592 168.825 176.025C169.742 176.458 170.458 177.083 170.975 177.9C171.492 178.7 171.75 179.625 171.75 180.675C171.75 181.775 171.475 182.742 170.925 183.575C170.392 184.408 169.65 185.058 168.7 185.525C167.767 185.975 166.717 186.2 165.55 186.2C163.2 186.2 161.383 185.442 160.1 183.925C158.833 182.408 158.2 180.258 158.2 177.475C158.2 175.525 158.542 173.867 159.225 172.5C159.925 171.117 160.892 170.075 162.125 169.375C163.375 168.658 164.825 168.3 166.475 168.3C167.325 168.3 168.125 168.392 168.875 168.575C169.625 168.742 170.275 168.992 170.825 169.325L169.875 171.275C169.042 170.725 167.925 170.45 166.525 170.45C164.708 170.45 163.283 171.017 162.25 172.15C161.217 173.267 160.7 174.9 160.7 177.05C160.7 177.317 160.708 177.525 160.725 177.675C161.225 176.925 161.908 176.358 162.775 175.975C163.658 175.575 164.65 175.375 165.75 175.375ZM165.45 184.175C166.6 184.175 167.533 183.867 168.25 183.25C168.967 182.633 169.325 181.808 169.325 180.775C169.325 179.742 168.958 178.925 168.225 178.325C167.508 177.708 166.542 177.4 165.325 177.4C164.542 177.4 163.842 177.55 163.225 177.85C162.625 178.15 162.15 178.558 161.8 179.075C161.467 179.592 161.3 180.167 161.3 180.8C161.3 181.417 161.458 181.983 161.775 182.5C162.108 183 162.583 183.408 163.2 183.725C163.833 184.025 164.583 184.175 165.45 184.175Z" fill="black"/>
<path d="M221.875 178.25H217.325V182.725H215.225V178.25H210.675V176.275H215.225V171.775H217.325V176.275H221.875V178.25Z" fill="black"/>
<path d="M217.55 223.1L220.525 224.775L219.75 226.15L216.725 224.375L216.75 227.775H215.25L215.275 224.375L212.25 226.15L211.475 224.775L214.475 223.1L211.475 221.45L212.25 220.05L215.275 221.825L215.25 218.45H216.75L216.725 221.825L219.75 220.05L220.525 221.45L217.55 223.1Z" fill="black"/>
<path d="M210.675 308.3H221.875V310.275H210.675V308.3ZM210.675 314.225H221.875V316.2H210.675V314.225Z" fill="black"/>
<path d="M217.395 259.37H219.93L214.98 273.5H212.445L217.395 259.37Z" fill="black"/>
<path d="M50.578 318.144C49.306 318.144 48.16 317.868 47.14 317.316C46.12 316.752 45.316 315.978 44.728 314.994C44.152 314.01 43.864 312.912 43.864 311.7C43.864 310.488 44.152 309.39 44.728 308.406C45.316 307.422 46.12 306.654 47.14 306.102C48.16 305.538 49.306 305.256 50.578 305.256C51.838 305.256 52.978 305.538 53.998 306.102C55.018 306.654 55.816 307.422 56.392 308.406C56.968 309.378 57.256 310.476 57.256 311.7C57.256 312.924 56.968 314.028 56.392 315.012C55.816 315.984 55.018 316.752 53.998 317.316C52.978 317.868 51.838 318.144 50.578 318.144ZM50.578 316.542C51.502 316.542 52.33 316.332 53.062 315.912C53.806 315.492 54.388 314.916 54.808 314.184C55.24 313.44 55.456 312.612 55.456 311.7C55.456 310.788 55.24 309.966 54.808 309.234C54.388 308.49 53.806 307.908 53.062 307.488C52.33 307.068 51.502 306.858 50.578 306.858C49.654 306.858 48.814 307.068 48.058 307.488C47.314 307.908 46.726 308.49 46.294 309.234C45.874 309.966 45.664 310.788 45.664 311.7C45.664 312.612 45.874 313.44 46.294 314.184C46.726 314.916 47.314 315.492 48.058 315.912C48.814 316.332 49.654 316.542 50.578 316.542ZM64.8492 308.37C66.0612 308.37 67.0212 308.724 67.7292 309.432C68.4492 310.128 68.8092 311.154 68.8092 312.51V318H67.0812V312.708C67.0812 311.784 66.8592 311.088 66.4152 310.62C65.9712 310.152 65.3352 309.918 64.5072 309.918C63.5712 309.918 62.8332 310.194 62.2932 310.746C61.7532 311.286 61.4832 312.066 61.4832 313.086V318H59.7552V308.46H61.4112V309.9C61.7592 309.408 62.2272 309.03 62.8152 308.766C63.4152 308.502 64.0932 308.37 64.8492 308.37Z" fill="white"/>
<path d="M104.578 318.144C103.306 318.144 102.16 317.868 101.14 317.316C100.12 316.752 99.316 315.978 98.728 314.994C98.152 314.01 97.864 312.912 97.864 311.7C97.864 310.488 98.152 309.39 98.728 308.406C99.316 307.422 100.12 306.654 101.14 306.102C102.16 305.538 103.306 305.256 104.578 305.256C105.838 305.256 106.978 305.538 107.998 306.102C109.018 306.654 109.816 307.422 110.392 308.406C110.968 309.378 111.256 310.476 111.256 311.7C111.256 312.924 110.968 314.028 110.392 315.012C109.816 315.984 109.018 316.752 107.998 317.316C106.978 317.868 105.838 318.144 104.578 318.144ZM104.578 316.542C105.502 316.542 106.33 316.332 107.062 315.912C107.806 315.492 108.388 314.916 108.808 314.184C109.24 313.44 109.456 312.612 109.456 311.7C109.456 310.788 109.24 309.966 108.808 309.234C108.388 308.49 107.806 307.908 107.062 307.488C106.33 307.068 105.502 306.858 104.578 306.858C103.654 306.858 102.814 307.068 102.058 307.488C101.314 307.908 100.726 308.49 100.294 309.234C99.874 309.966 99.664 310.788 99.664 311.7C99.664 312.612 99.874 313.44 100.294 314.184C100.726 314.916 101.314 315.492 102.058 315.912C102.814 316.332 103.654 316.542 104.578 316.542ZM117.247 305.958C116.215 305.958 115.699 306.516 115.699 307.632V308.46H118.471V309.882H115.735V318H114.007V309.882H112.387V308.46H114.007V307.614C114.007 306.666 114.283 305.916 114.835 305.364C115.387 304.812 116.161 304.536 117.157 304.536C117.541 304.536 117.901 304.584 118.237 304.68C118.573 304.776 118.861 304.914 119.101 305.094L118.579 306.408C118.183 306.108 117.739 305.958 117.247 305.958ZM123.593 305.958C122.561 305.958 122.045 306.516 122.045 307.632V308.46H124.817V309.882H122.081V318H120.353V309.882H118.733V308.46H120.353V307.614C120.353 306.666 120.629 305.916 121.181 305.364C121.733 304.812 122.507 304.536 123.503 304.536C123.887 304.536 124.247 304.584 124.583 304.68C124.919 304.776 125.207 304.914 125.447 305.094L124.925 306.408C124.529 306.108 124.085 305.958 123.593 305.958Z" fill="white"/>
<path d="M165.524 318.144C164.264 318.144 163.124 317.868 162.104 317.316C161.096 316.752 160.304 315.984 159.728 315.012C159.152 314.028 158.864 312.924 158.864 311.7C158.864 310.476 159.152 309.378 159.728 308.406C160.304 307.422 161.102 306.654 162.122 306.102C163.142 305.538 164.282 305.256 165.542 305.256C166.526 305.256 167.426 305.424 168.242 305.76C169.058 306.084 169.754 306.57 170.33 307.218L169.16 308.352C168.212 307.356 167.03 306.858 165.614 306.858C164.678 306.858 163.832 307.068 163.076 307.488C162.32 307.908 161.726 308.49 161.294 309.234C160.874 309.966 160.664 310.788 160.664 311.7C160.664 312.612 160.874 313.44 161.294 314.184C161.726 314.916 162.32 315.492 163.076 315.912C163.832 316.332 164.678 316.542 165.614 316.542C167.018 316.542 168.2 316.038 169.16 315.03L170.33 316.164C169.754 316.812 169.052 317.304 168.224 317.64C167.408 317.976 166.508 318.144 165.524 318.144Z" fill="#E5E5E5"/>
<path d="M210.793 57.4219C210.793 56.2852 210.951 55.3184 211.268 54.5215C211.596 53.7129 212.012 53.0449 212.516 52.5176C213.02 51.9902 213.576 51.5742 214.186 51.2695C214.795 50.9648 215.387 50.7363 215.961 50.584C216.547 50.4316 217.068 50.3379 217.525 50.3027C217.994 50.2676 218.34 50.25 218.562 50.25H219.16C219.383 50.25 219.729 50.2676 220.197 50.3027C220.666 50.3379 221.182 50.4316 221.744 50.584C222.318 50.7363 222.904 50.9648 223.502 51.2695C224.111 51.5742 224.662 51.9902 225.154 52.5176C225.658 53.0449 226.068 53.7129 226.385 54.5215C226.701 55.3184 226.859 56.2852 226.859 57.4219V67.793C226.859 68.9648 226.701 69.9609 226.385 70.7812C226.068 71.6016 225.658 72.2871 225.154 72.8379C224.662 73.377 224.111 73.7988 223.502 74.1035C222.904 74.4082 222.318 74.6426 221.744 74.8066C221.182 74.959 220.666 75.0527 220.197 75.0879C219.729 75.123 219.383 75.1406 219.16 75.1406H218.562C218.34 75.1406 217.994 75.123 217.525 75.0879C217.068 75.0527 216.547 74.959 215.961 74.8066C215.387 74.6426 214.795 74.4082 214.186 74.1035C213.576 73.7988 213.02 73.377 212.516 72.8379C212.012 72.2871 211.596 71.6016 211.268 70.7812C210.951 69.9609 210.793 68.9648 210.793 67.793V57.4219ZM216.559 68.707C216.594 69.1172 216.705 69.4805 216.893 69.7969C217.045 70.0664 217.273 70.3184 217.578 70.5527C217.895 70.7754 218.328 70.8867 218.879 70.8867C219.418 70.8867 219.84 70.7754 220.145 70.5527C220.449 70.3184 220.678 70.0664 220.83 69.7969C221.006 69.4805 221.117 69.1172 221.164 68.707V56.8242C221.117 56.4141 221.006 56.0508 220.83 55.7344C220.678 55.4648 220.449 55.2188 220.145 54.9961C219.84 54.7617 219.418 54.6445 218.879 54.6445C218.328 54.6445 217.895 54.7617 217.578 54.9961C217.273 55.2188 217.045 55.4648 216.893 55.7344C216.705 56.0508 216.594 56.4141 216.559 56.8242V68.707Z" fill="white"/>
</svg>
