<svg width="253" height="243" viewBox="0 0 253 243" fill="none" xmlns="http://www.w3.org/2000/svg">
<path d="M61.3434 204.995L23.5774 105.049L109.016 40.1161L201.424 103.212L174.116 203.505L61.3434 204.995ZM22.0967 105.348L59.9571 205.977L49.993 226.854L17.9719 161.827L0.766913 93.498L22.0967 105.348Z" fill="#3073A5" stroke="#FF8A00"/>
<path d="M51.2281 229.109L61.3239 206.994L174.812 205.003L203.386 230.672L132.5 241.994L51.2281 229.109Z" fill="#0E3552" stroke="#FF8A00"/>
<path d="M175.83 203.833L202.686 103.37L248.763 84.7303L251.729 160.857L205.174 230.243L175.83 203.833Z" fill="#134569" stroke="#FF8A00"/>
<path d="M120 0L202.5 24L249.5 83L202 102.5L109.5 39L120 0Z" fill="#2286CE"/>
<path d="M120 0L202.5 24L249.5 83L202 102.5L109.5 39L120 0Z" fill="#2286CE"/>
<path d="M120 0L202.5 24L249.5 83L202 102.5L109.5 39L120 0Z" fill="#2286CE"/>
<path d="M120 0L202.5 24L249.5 83L202 102.5L109.5 39L120 0Z" stroke="#FF8A00"/>
<path d="M50 29.5L119.5 0L109 39L22.5 104L0 92L50 29.5Z" fill="#0093FF"/>
<path d="M50 29.5L119.5 0L109 39L22.5 104L0 92L50 29.5Z" fill="#0093FF"/>
<path d="M50 29.5L119.5 0L109 39L22.5 104L0 92L50 29.5Z" fill="#0093FF"/>
<path d="M50 29.5L119.5 0L109 39L22.5 104L0 92L50 29.5Z" stroke="#FF8A00"/>
</svg>
