<svg width="295" height="311" viewBox="0 0 295 311" fill="none" xmlns="http://www.w3.org/2000/svg">
<path d="M117.499 89.1159L228.774 152.427L117.499 216.663L117.499 89.1159Z" fill="#16F511"/>
<path d="M117.499 89.1159L228.774 152.427L117.499 216.663L117.499 89.1159Z" fill="#16F511"/>
<path d="M117.499 89.1159L228.774 152.427L117.499 216.663L117.499 89.1159Z" fill="#16F511"/>
<path d="M117.499 89.1159L228.774 152.427L117.499 216.663L117.499 89.1159Z" stroke="#FFE600" stroke-width="2"/>
<path d="M87.2269 51.778L116.806 87.4922L29.6873 154.051L87.2269 51.778Z" fill="#16F511"/>
<path d="M87.2269 51.778L116.806 87.4922L29.6873 154.051L87.2269 51.778Z" fill="#16F511"/>
<path d="M87.2269 51.778L116.806 87.4922L29.6873 154.051L87.2269 51.778Z" fill="#16F511"/>
<path d="M87.2269 51.778L116.806 87.4922L29.6873 154.051L87.2269 51.778Z" stroke="#FFE600" stroke-width="2"/>
<path d="M88.6135 51.2329L117.5 87L209.008 51.2329L88.6135 51.2329Z" fill="#16F511"/>
<path d="M88.6135 51.2329L117.5 87L209.008 51.2329L88.6135 51.2329Z" fill="#16F511"/>
<path d="M88.6135 51.2329L117.5 87L209.008 51.2329L88.6135 51.2329Z" fill="#16F511"/>
<path d="M88.6135 51.2329L117.5 87L209.008 51.2329L88.6135 51.2329Z" stroke="#FFE600" stroke-width="2"/>
<path d="M117.499 89.1159L228.774 152.427L117.499 216.663L117.499 89.1159Z" fill="#16F511"/>
<path d="M117.499 89.1159L228.774 152.427L117.499 216.663L117.499 89.1159Z" fill="#16F511"/>
<path d="M117.499 89.1159L228.774 152.427L117.499 216.663L117.499 89.1159Z" fill="#16F511"/>
<path d="M117.499 89.1159L228.774 152.427L117.499 216.663L117.499 89.1159Z" stroke="#FFE600" stroke-width="2"/>
<path d="M117.037 88.4199L117.037 215.739L29.4559 154.283L117.037 88.4199Z" fill="#16F511"/>
<path d="M117.037 88.4199L117.037 215.739L29.4559 154.283L117.037 88.4199Z" fill="#16F511"/>
<path d="M117.037 88.4199L117.037 215.739L29.4559 154.283L117.037 88.4199Z" fill="#16F511"/>
<path d="M117.037 88.4199L117.037 215.739L29.4559 154.283L117.037 88.4199Z" stroke="#FFE600" stroke-width="2"/>
<path d="M119.117 215.971L226.571 154.051L204.155 258.643L119.117 215.971Z" fill="#1D551C"/>
<path d="M119.117 215.971L226.571 154.051L204.155 258.643L119.117 215.971Z" fill="#1D551C"/>
<path d="M119.117 215.971L226.571 154.051L204.155 258.643L119.117 215.971Z" fill="#1D551C"/>
<path d="M119.117 215.971L226.571 154.051L204.155 258.643L119.117 215.971Z" fill="#1D551C"/>
<path d="M119.117 215.971L226.571 154.051L204.155 258.643L119.117 215.971Z" fill="#1D551C"/>
<path d="M119.117 215.971L226.571 154.051L204.155 258.643L119.117 215.971Z" fill="#1D551C"/>
<path d="M119.117 215.971L226.571 154.051L204.155 258.643L119.117 215.971Z" fill="#1D551C"/>
<path d="M119.117 215.971L226.571 154.051L204.155 258.643L119.117 215.971Z" fill="#1D551C"/>
<path d="M119.117 215.971L226.571 154.051L204.155 258.643L119.117 215.971Z" stroke="#FFE600" stroke-width="2"/>
<path d="M29.225 154.283L117.037 215.971L83.8066 259.322L29.225 154.283Z" fill="#1D551C"/>
<path d="M29.225 154.283L117.037 215.971L83.8066 259.322L29.225 154.283Z" fill="#1D551C"/>
<path d="M29.225 154.283L117.037 215.971L83.8066 259.322L29.225 154.283Z" fill="#1D551C"/>
<path d="M29.225 154.283L117.037 215.971L83.8066 259.322L29.225 154.283Z" fill="#1D551C"/>
<path d="M29.225 154.283L117.037 215.971L83.8066 259.322L29.225 154.283Z" fill="#1D551C"/>
<path d="M29.225 154.283L117.037 215.971L83.8066 259.322L29.225 154.283Z" fill="#1D551C"/>
<path d="M29.225 154.283L117.037 215.971L83.8066 259.322L29.225 154.283Z" fill="#1D551C"/>
<path d="M29.225 154.283L117.037 215.971L83.8066 259.322L29.225 154.283Z" fill="#1D551C"/>
<path d="M29.225 154.283L117.037 215.971L83.8066 259.322L29.225 154.283Z" stroke="#FFE600" stroke-width="2"/>
<path d="M84.2227 259.57L117.627 215.739L205.08 259.57L84.2227 259.57Z" fill="#071D06"/>
<path d="M84.2227 259.57L117.627 215.739L205.08 259.57L84.2227 259.57Z" fill="#071D06"/>
<path d="M84.2227 259.57L117.627 215.739L205.08 259.57L84.2227 259.57Z" fill="#071D06"/>
<path d="M84.2227 259.57L117.627 215.739L205.08 259.57L84.2227 259.57Z" fill="#071D06"/>
<path d="M84.2227 259.57L117.627 215.739L205.08 259.57L84.2227 259.57Z" fill="#071D06"/>
<path d="M84.2227 259.57L117.627 215.739L205.08 259.57L84.2227 259.57Z" fill="#071D06"/>
<path d="M84.2227 259.57L117.627 215.739L205.08 259.57L84.2227 259.57Z" fill="#071D06"/>
<path d="M84.2227 259.57L117.627 215.739L205.08 259.57L84.2227 259.57Z" fill="#071D06"/>
<path d="M84.2227 259.57L117.627 215.739L205.08 259.57L84.2227 259.57Z" stroke="#FFE600" stroke-width="2"/>
<path d="M117.268 88.4202L209.701 51.3144L226.802 151.036L117.268 88.4202Z" fill="#0FC90B"/>
<path d="M117.268 88.4202L209.701 51.3144L226.802 151.036L117.268 88.4202Z" fill="#0FC90B"/>
<path d="M117.268 88.4202L209.701 51.3144L226.802 151.036L117.268 88.4202Z" fill="#0FC90B"/>
<path d="M117.268 88.4202L209.701 51.3144L226.802 151.036L117.268 88.4202Z" fill="#0FC90B"/>
<path d="M117.268 88.4202L209.701 51.3144L226.802 151.036L117.268 88.4202Z" fill="#0FC90B"/>
<path d="M117.268 88.4202L209.701 51.3144L226.802 151.036L117.268 88.4202Z" fill="#0FC90B"/>
<path d="M117.268 88.4202L209.701 51.3144L226.802 151.036L117.268 88.4202Z" fill="#0FC90B"/>
<path d="M117.268 88.4202L209.701 51.3144L226.802 151.036L117.268 88.4202Z" fill="#0FC90B"/>
<path d="M117.268 88.4202L209.701 51.3144L226.802 151.036L117.268 88.4202Z" stroke="#FFE600" stroke-width="2"/>
<path d="M209.933 51.7781L263.775 154.978L227.495 152.195L209.933 51.7781Z" fill="#1D551C"/>
<path d="M209.933 51.7781L263.775 154.978L227.495 152.195L209.933 51.7781Z" fill="#1D551C"/>
<path d="M209.933 51.7781L263.775 154.978L227.495 152.195L209.933 51.7781Z" fill="#1D551C"/>
<path d="M209.933 51.7781L263.775 154.978L227.495 152.195L209.933 51.7781Z" fill="#1D551C"/>
<path d="M209.933 51.7781L263.775 154.978L227.495 152.195L209.933 51.7781Z" fill="#1D551C"/>
<path d="M209.933 51.7781L263.775 154.978L227.495 152.195L209.933 51.7781Z" fill="#1D551C"/>
<path d="M209.933 51.7781L263.775 154.978L227.495 152.195L209.933 51.7781Z" fill="#1D551C"/>
<path d="M209.933 51.7781L263.775 154.978L227.495 152.195L209.933 51.7781Z" fill="#1D551C"/>
<path d="M209.933 51.7781L263.775 154.978L227.495 152.195L209.933 51.7781Z" stroke="#FFE600" stroke-width="2"/>
<path d="M227.495 152.427L264.737 155.047L203.848 260.545L227.495 152.427Z" fill="#071D06"/>
<path d="M227.495 152.427L264.737 155.047L203.848 260.545L227.495 152.427Z" fill="#071D06"/>
<path d="M227.495 152.427L264.737 155.047L203.848 260.545L227.495 152.427Z" fill="#071D06"/>
<path d="M227.495 152.427L264.737 155.047L203.848 260.545L227.495 152.427Z" fill="#071D06"/>
<path d="M227.495 152.427L264.737 155.047L203.848 260.545L227.495 152.427Z" fill="#071D06"/>
<path d="M227.495 152.427L264.737 155.047L203.848 260.545L227.495 152.427Z" fill="#071D06"/>
<path d="M227.495 152.427L264.737 155.047L203.848 260.545L227.495 152.427Z" fill="#071D06"/>
<path d="M227.495 152.427L264.737 155.047L203.848 260.545L227.495 152.427Z" fill="#071D06"/>
<path d="M227.495 152.427L264.737 155.047L203.848 260.545L227.495 152.427Z" stroke="#FFE600" stroke-width="2"/>
</svg>
